<svg width="20" height="20" viewBox="0 0 20 20" fill="none" xmlns="http://www.w3.org/2000/svg">
<path d="M10.504 0.0166665C11.7605 0 13.0075 0.00833323 14.2544 0C14.3312 1.27498 14.8587 2.57497 15.933 3.47496C17.0073 4.39994 18.5228 4.82494 20 4.9666V8.3249C18.6188 8.28323 17.2279 8.03323 15.9714 7.51657C15.4247 7.29991 14.9163 7.02491 14.4175 6.74158C14.4079 9.17488 14.4271 11.6082 14.3983 14.0332C14.3216 15.1998 13.8804 16.3581 13.1034 17.3165C11.8469 18.9164 9.66951 19.9581 7.4346 19.9914C6.06295 20.0581 4.69131 19.7331 3.5211 19.1331C1.58353 18.1414 0.221479 16.3248 0.0200487 14.3748C0.000864896 13.9582 -0.00872701 13.5415 0.0104568 13.1332C0.183111 11.5499 1.08475 10.0332 2.48517 8.99989C4.07743 7.7999 6.30275 7.22491 8.3842 7.56657C8.40338 8.79989 8.34583 10.0332 8.34583 11.2665C7.39623 10.9999 6.28357 11.0749 5.44907 11.5749C4.84478 11.9165 4.38437 12.4415 4.14457 13.0332C3.94314 13.4582 4.00069 13.9248 4.01028 14.3748C4.24049 15.7415 5.75601 16.8915 7.36745 16.7665C8.44175 16.7581 9.46808 16.2165 10.0244 15.4248C10.2067 15.1498 10.4081 14.8665 10.4177 14.5415C10.5136 13.0498 10.4752 11.5665 10.4848 10.0749C10.4944 6.71658 10.4752 3.36662 10.504 0.0166665Z" fill="white"/>
</svg>
