<svg width="20" height="20" viewBox="0 0 20 20" fill="none" xmlns="http://www.w3.org/2000/svg">
<path d="M10 20C4.4875 20 0 15.5125 0 10C0 4.4875 4.4875 0 10 0C15.5125 0 20 4.4875 20 10C20 15.5125 15.5125 20 10 20ZM18.4333 11.3683C18.1417 11.2767 15.7917 10.5742 13.1133 11.0033C14.23 14.0733 14.6858 16.5733 14.7733 17.0933C16.69 15.7975 18.0533 13.7433 18.4358 11.3683H18.4333ZM13.3375 17.875C13.21 17.125 12.7125 14.515 11.5125 11.4L11.4575 11.4167C6.6325 13.0958 4.9075 16.4375 4.7575 16.75C6.19917 17.8817 8.02417 18.555 9.99917 18.555C11.1825 18.555 12.3075 18.3133 13.3325 17.8767L13.3375 17.875ZM3.65417 15.725C3.8475 15.3917 6.19167 11.5125 10.5975 10.0875C10.71 10.05 10.8225 10.0175 10.935 9.9875C10.7183 9.5 10.485 9.015 10.2417 8.5375C5.975 9.8125 1.83833 9.75833 1.46333 9.75L1.46 10.01C1.46 12.2042 2.29167 14.2075 3.655 15.7225L3.65417 15.725ZM1.6375 8.2625C2.02083 8.26917 5.54 8.28417 9.535 7.2225C8.12 4.7075 6.59333 2.59083 6.36833 2.2825C3.97833 3.4075 2.19333 5.6075 1.63833 8.2575L1.6375 8.2625ZM8 1.71C8.235 2.02667 9.7875 4.13833 11.185 6.71C14.2225 5.5725 15.51 3.84333 15.6625 3.625C14.1542 2.28333 12.1708 1.47 10 1.47C9.3125 1.47 8.64167 1.55333 8 1.7075V1.71ZM16.6125 4.6125C16.4308 4.85417 15 6.69 11.8425 7.97917C12.0425 8.3875 12.2342 8.8 12.4092 9.2175C12.4758 9.3675 12.5342 9.5175 12.5925 9.65917C15.4342 9.30083 18.2592 9.87583 18.5425 9.93417C18.5258 7.9175 17.8092 6.0675 16.6175 4.6175L16.6125 4.6125Z" fill="white"/>
</svg>
