<svg width="20" height="20" viewBox="0 0 20 20" fill="none" xmlns="http://www.w3.org/2000/svg">
<path d="M10 0C4.475 0 0 4.59118 0 10.2539C0 14.7853 2.865 18.6279 6.8375 19.9823C7.3375 20.0788 7.52083 19.7618 7.52083 19.4892C7.52083 19.2457 7.5125 18.6006 7.50833 17.7461C4.72667 18.3647 4.14 16.3703 4.14 16.3703C3.685 15.1869 3.0275 14.8707 3.0275 14.8707C2.12167 14.235 3.0975 14.2478 3.0975 14.2478C4.10167 14.3196 4.62917 15.3039 4.62917 15.3039C5.52083 16.8719 6.97 16.4191 7.54167 16.1567C7.63167 15.4936 7.88917 15.0416 8.175 14.7853C5.95417 14.5289 3.62 13.6471 3.62 9.71813C3.62 8.59875 4.0075 7.68444 4.64917 6.96667C4.53667 6.70776 4.19917 5.66528 4.73667 4.2528C4.73667 4.2528 5.57417 3.97766 7.48667 5.30383C8.28667 5.07568 9.13667 4.96289 9.98667 4.95776C10.8367 4.96289 11.6867 5.07568 12.4867 5.30383C14.3867 3.97766 15.2242 4.2528 15.2242 4.2528C15.7617 5.66528 15.4242 6.70776 15.3242 6.96667C15.9617 7.68444 16.3492 8.59875 16.3492 9.71813C16.3492 13.6573 14.0117 14.5246 11.7867 14.7767C12.1367 15.0843 12.4617 15.7132 12.4617 16.6737C12.4617 18.046 12.4492 19.1483 12.4492 19.4816C12.4492 19.7507 12.6242 20.0711 13.1367 19.9686C17.1375 18.6236 20 14.7784 20 10.2539C20 4.59118 15.5225 0 10 0Z" fill="white"/>
</svg>
