<svg width="20" height="20" viewBox="0 0 20 20" fill="none" xmlns="http://www.w3.org/2000/svg">
<path d="M19.9608 2.38229C19.2121 2.7879 18.4188 3.05564 17.6067 3.17689C18.4618 2.54454 19.102 1.55287 19.4092 0.385005C18.6167 0.954046 17.7383 1.36827 16.8033 1.59896C16.1865 0.787362 15.3691 0.249072 14.478 0.0676765C13.587 -0.113719 12.6722 0.0719304 11.8758 0.595797C11.0793 1.11966 10.4457 1.95243 10.0734 2.96478C9.70104 3.97714 9.6108 5.11242 9.81667 6.19435C6.40833 5.99647 3.38917 3.98175 1.36667 0.938666C0.998995 1.70745 0.80722 2.5843 0.811667 3.47628C0.811667 5.22954 1.53667 6.77057 2.635 7.6759C1.98405 7.65041 1.34748 7.43387 0.778333 7.04432V7.10584C0.777964 8.27098 1.10522 9.40039 1.70459 10.3025C2.30395 11.2045 3.13851 11.8237 4.06667 12.055C3.46525 12.2532 2.83534 12.283 2.22333 12.1421C2.48677 13.1449 2.99805 14.0214 3.68585 14.6495C4.37364 15.2775 5.20363 15.6258 6.06 15.6456C4.60961 17.0461 2.81873 17.8062 0.975 17.8038C0.65 17.8038 0.325833 17.7802 0 17.7351C1.87976 19.216 4.06543 20.002 6.2975 20C13.8417 20 17.9625 12.3144 17.9625 5.66119C17.9625 5.44588 17.9625 5.23057 17.95 5.01525C18.755 4.30253 19.4494 3.41765 20 2.40279L19.9608 2.38229Z" fill="white"/>
</svg>
